<svg width="34" height="34" viewBox="0 0 34 34" fill="none" xmlns="http://www.w3.org/2000/svg">
<circle cx="17" cy="17" r="17" fill="#212121"/>
<g clip-path="url(#clip0_41_211)">
<path d="M24.6461 12.9527L24.6661 13.0834C24.4727 12.3974 23.9507 11.868 23.2874 11.6754L23.2734 11.672C22.0261 11.3334 17.0067 11.3334 17.0067 11.3334C17.0067 11.3334 12.0001 11.3267 10.7401 11.672C10.0641 11.868 9.54141 12.3974 9.35141 13.0694L9.34807 13.0834C8.88207 15.5174 8.87874 18.442 9.36874 21.048L9.34807 20.916C9.54141 21.602 10.0634 22.1314 10.7267 22.324L10.7407 22.3274C11.9867 22.6667 17.0074 22.6667 17.0074 22.6667C17.0074 22.6667 22.0134 22.6667 23.2741 22.3274C23.9507 22.1314 24.4734 21.602 24.6634 20.93L24.6667 20.916C24.8787 19.784 25.0001 18.4814 25.0001 17.1507C25.0001 17.102 25.0001 17.0527 24.9994 17.0034C25.0001 16.958 25.0001 16.904 25.0001 16.85C25.0001 15.5187 24.8787 14.216 24.6461 12.9527ZM15.4054 19.434V14.572L19.5827 17.0067L15.4054 19.434Z" fill="white"/>
</g>
<defs>
<clipPath id="clip0_41_211">
<rect width="16" height="16" fill="white" transform="translate(9 9)"/>
</clipPath>
</defs>
</svg>
